# File created by Blade
# Date/Time:  Wed Jan 21 18:34:34 2015
#---------------------------------------------------------
:version 1.10
:name HOM
:units
  mass 1.0
  length 1.000000
  angle deg
:documentation
     Acclaim Skeleton File
:root
   axis xyz
   order TX TY TZ RX RY RZ
   position 0.000000 0.000000 0.000000
   orientation 0 0 0
:bonedata
   begin
      id 1
      name RightUpLeg_dum
      direction -1.000000 0.000000 0.000000
      length 3.693983
      axis 0.0 0.0 0.0 xyz
   end
   begin
      id 2
      name LeftUpLeg_dum
      direction 1.000000 0.000000 0.000000
      length 3.693983
      axis 0.0 0.0 0.0 xyz
   end
   begin
      id 3
      name Spine_dum
      direction 0.000000 1.000000 0.000000
      length 2.392956
      axis 0.0 0.0 0.0 xyz
   end
   begin
      id 4
      name RightUpLeg
      direction 0.000000 -1.000000 0.000000
      length 15.795667
      axis 0.0 0.0 0.0 xyz
      dof rx ry rz
   end
   begin
      id 5
      name RightLeg
      direction 0.000000 -1.000000 0.000000
      length 14.766989
      axis 0.0 0.0 0.0 xyz
      dof rx ry rz
   end
   begin
      id 6
      name RightFoot
      direction 0.000000 -0.258819 0.965926
      length 4.962790
      axis 15.0 0.0 0.0 xyz
      dof rx ry rz
   end
   begin
      id 7
      name RightToeBase
      direction 0.000000 0.000000 1.000000
      length 2.952750
      axis 0.0 0.0 0.0 xyz
      dof rx ry rz
   end
   begin
      id 8
      name LeftUpLeg
      direction 0.000000 -1.000000 0.000000
      length 15.795667
      axis 0.0 0.0 0.0 xyz
      dof rx ry rz
   end
   begin
      id 9
      name LeftLeg
      direction 0.000000 -1.000000 0.000000
      length 14.766989
      axis 0.0 0.0 0.0 xyz
      dof rx ry rz
   end
   begin
      id 10
      name LeftFoot
      direction 0.000000 -0.258819 0.965926
      length 4.962790
      axis 15.0 0.0 0.0 xyz
      dof rx ry rz
   end
   begin
      id 11
      name LeftToeBase
      direction 0.000000 0.000000 1.000000
      length 2.952750
      axis 0.0 0.0 0.0 xyz
      dof rx ry rz
   end
   begin
      id 12
      name Spine
      direction 0.000000 1.000000 0.000000
      length 0.000000
      axis 0.0 0.0 0.0 xyz
      dof rx ry rz
   end
   begin
      id 13
      name Spine_dum1
      direction 0.000000 1.000000 0.000000
      length 13.207411
      axis 0.0 0.0 0.0 xyz
   end
   begin
      id 14
      name Spine_dum2
      direction 0.000000 1.000000 0.000000
      length 13.207411
      axis 0.0 0.0 0.0 xyz
   end
   begin
      id 15
      name Spine_dum3
      direction 0.000000 1.000000 0.000000
      length 19.250100
      axis 0.0 0.0 0.0 xyz
   end
   begin
      id 16
      name RightShoulder
      direction -1.000000 0.000000 0.000000
      length 8.140465
      axis 0.0 0.0 90.0 xyz
      dof rx ry rz
   end
   begin
      id 17
      name RightArm
      direction -1.000000 0.000000 0.000000
      length 10.649840
      axis 0.0 0.0 90.0 xyz
      dof rx ry rz
   end
   begin
      id 18
      name RightForeArm
      direction -1.000000 0.000000 0.000000
      length 8.304624
      axis 0.0 0.0 90.0 xyz
      dof ry rz rx
   end
   begin
      id 19
      name RightHand
      direction -1.000000 0.000000 0.000000
      length 0.000000
      axis 0.0 0.0 90.0 xyz
      dof rx ry rz
   end
   begin
      id 20
      name RightHand_dum1
      direction -1.000000 0.000000 0.000000
      length 3.937000
      axis 0.0 0.0 90.0 xyz
   end
   begin
      id 21
      name RightHand_dum2
      direction 0.000000 0.000000 0.000000
      length 0.000000
      axis 0.0 0.0 90.0 xyz
   end
   begin
      id 22
      name RightHandThumb1
      direction 0.000000 0.000000 1.000000
      length 3.937000
      axis 0.0 0.0 90.0 xyz
      dof rx rz ry
   end
   begin
      id 23
      name LeftShoulder
      direction 1.000000 0.000000 0.000000
      length 8.140465
      axis 0.0 0.0 -90.0 xyz
      dof rx ry rz
   end
   begin
      id 24
      name LeftArm
      direction 1.000000 0.000000 0.000000
      length 10.649840
      axis 0.0 0.0 -90.0 xyz
      dof rx ry rz
   end
   begin
      id 25
      name LeftForeArm
      direction 1.000000 0.000000 0.000000
      length 8.304624
      axis 0.0 0.0 -90.0 xyz
      dof ry rz rx
   end
   begin
      id 26
      name LeftHand
      direction 1.000000 0.000000 0.000000
      length 0.000000
      axis 0.0 0.0 -90.0 xyz
      dof rx ry rz
   end
   begin
      id 27
      name LeftHand_dum1
      direction 1.000000 0.000000 0.000000
      length 3.937000
      axis 0.0 0.0 -90.0 xyz
   end
   begin
      id 28
      name LeftHand_dum2
      direction 0.000000 0.000000 0.000000
      length 0.000000
      axis 0.0 0.0 -90.0 xyz
   end
   begin
      id 29
      name LeftHandThumb1
      direction 0.000000 0.000000 1.000000
      length 3.937000
      axis 0.0 0.0 -90.0 xyz
      dof rx rz ry
   end
   begin
      id 30
      name Head
      direction 0.000000 1.000000 0.000000
      length 4.527550
      axis 0.0 0.0 0.0 xyz
      dof rx ry rz
   end
:hierarchy
   begin
      root RightUpLeg_dum LeftUpLeg_dum Spine_dum
      RightUpLeg_dum RightUpLeg
      LeftUpLeg_dum LeftUpLeg
      Spine_dum Spine
      RightUpLeg RightLeg
      RightLeg RightFoot
      RightFoot RightToeBase
      LeftUpLeg LeftLeg
      LeftLeg LeftFoot
      LeftFoot LeftToeBase
      Spine Spine_dum1 Spine_dum2 Spine_dum3
      Spine_dum1 RightShoulder
      Spine_dum2 LeftShoulder
      Spine_dum3 Head
      RightShoulder RightArm
      RightArm RightForeArm
      RightForeArm RightHand
      RightHand RightHand_dum1 RightHand_dum2
      RightHand_dum2 RightHandThumb1
      LeftShoulder LeftArm
      LeftArm LeftForeArm
      LeftForeArm LeftHand
      LeftHand LeftHand_dum1 LeftHand_dum2
      LeftHand_dum2 LeftHandThumb1
   end

# File created by Blade
# Date/Time:  Wed Jan 21 18:34:41 2015
# Frame Rate: 120.000 fps
#------------------------------------------------------
:FULLY-SPECIFIED
:DEGREES
983
root 2.462551 32.710601 -5.923988 46.087135 -6.376137 0.164749
RightUpLeg -40.066369 -13.731647 6.904049
RightLeg -2.927789 -0.000000 0.000000
RightFoot -6.836585 2.459837 19.411176
RightToeBase 20.290784 -0.000000 -0.000000
LeftUpLeg -39.076557 12.377137 -4.234224
LeftLeg 1.513954 -0.000000 -0.000000
LeftFoot -7.095854 -1.996765 -14.876053
LeftToeBase 0.561671 -0.000000 -0.000000
Spine -48.971011 4.011803 -4.743100
RightShoulder -12.054597 23.576444 -42.847725
RightArm 8.146486 -17.081759 42.091849
RightForeArm 6.164793 0.000000 -4.729538
RightHand 8.097076 0.000000 6.919684
RightHandThumb1 -24.326973 -0.000000 -32.862282
LeftShoulder -10.055312 -0.003337 38.740470
LeftArm 30.102202 -8.896856 -37.866639
LeftForeArm 20.630951 -0.000000 -2.134651
LeftHand -26.296208 0.000000 -3.514264
LeftHandThumb1 -26.253704 0.000000 33.147579
Head 1.829536 -2.132175 6.096576
984
root 2.448527 32.709446 -5.938390 46.041833 -6.435315 0.150096
RightUpLeg -40.016032 -13.666460 6.870148
RightLeg -2.967789 -0.000000 0.000000
RightFoot -6.795286 2.503357 19.524769
RightToeBase 20.305975 -0.000000 -0.000000
LeftUpLeg -39.026964 12.428092 -4.225989
LeftLeg 1.474425 -0.000000 -0.000000
LeftFoot -7.087445 -1.972465 -14.889023
LeftToeBase 0.579295 -0.000000 -0.000000
Spine -48.951848 3.925354 -4.621430
RightShoulder -12.099193 23.579994 -42.830005
RightArm 8.103054 -17.219098 42.125095
RightForeArm 6.230335 -0.000000 -4.828047
RightHand 8.104735 -0.000000 7.065605
RightHandThumb1 -24.326973 -0.000000 -32.862282
LeftShoulder -9.952896 -0.182021 38.717042
LeftArm 30.323026 -8.776598 -37.828614
LeftForeArm 20.719260 -0.000000 -2.031623
LeftHand -26.376082 -0.000000 -3.642626
LeftHandThumb1 -26.253704 0.000000 33.147579
Head 1.875925 -2.119839 6.158622
985
root 2.435556 32.708582 -5.950625 46.000012 -6.475042 0.137362
RightUpLeg -39.970064 -13.643769 6.874541
RightLeg -3.015691 -0.000000 0.000000
RightFoot -6.762177 2.547968 19.643084
RightToeBase 20.431117 -0.000000 -0.000000
LeftUpLeg -38.977801 12.460690 -4.208423
LeftLeg 1.433910 -0.000000 -0.000000
LeftFoot -7.096838 -1.919977 -14.884697
LeftToeBase 0.660740 -0.000000 -0.000000
Spine -48.951605 3.824829 -4.494982
RightShoulder -12.103305 23.472439 -42.775415
RightArm 8.114381 -17.071332 42.172659
RightForeArm 6.122448 -0.000000 -4.878420
RightHand 8.083243 -0.000000 7.386469
RightHandThumb1 -24.326973 -0.000000 -32.862282
LeftShoulder -9.854514 -0.148049 38.693315
LeftArm 30.693882 -8.674454 -37.798273
LeftForeArm 20.656370 -0.000000 -2.001952
LeftHand -26.245749 -0.000000 -3.551577
LeftHandThumb1 -26.253704 0.000000 33.147579
Head 1.944490 -2.100313 6.242212
986
root 2.424692 32.708069 -5.965538 45.988312 -6.532940 0.127363
RightUpLeg -39.978056 -13.610666 6.873909
RightLeg -3.027316 -0.000000 0.000000
RightFoot -6.731222 2.608421 19.666044
RightToeBase 20.439627 -0.000000 -0.000000
LeftUpLeg -38.958767 12.493507 -4.215067
LeftLeg 1.382455 -0.000000 -0.000000
LeftFoot -7.078987 -1.833796 -14.854637
LeftToeBase 0.636893 -0.000000 -0.000000
Spine -48.976753 3.744049 -4.399859
RightShoulder -12.062391 23.494240 -42.747310
RightArm 7.964058 -17.022329 42.256870
RightForeArm 6.159535 -0.000000 -4.895703
RightHand 8.020828 -0.000000 7.378990
RightHandThumb1 -24.326973 -0.000000 -32.862282
LeftShoulder -9.743241 -0.245221 38.695705
LeftArm 30.976248 -8.495231 -37.740152
LeftForeArm 20.592628 -0.000000 -1.945134
LeftHand -26.343186 -0.000000 -3.651437
LeftHandThumb1 -26.253704 0.000000 33.147579
Head 1.995884 -2.072758 6.341512
987
root 2.412952 32.708351 -5.978640 45.957766 -6.596658 0.120883
RightUpLeg -39.961007 -13.569805 6.860706
RightLeg -3.046975 -0.000000 0.000000
RightFoot -6.700854 2.646146 19.694844
RightToeBase 20.482764 -0.000000 -0.000000
LeftUpLeg -38.926109 12.525071 -4.213470
LeftLeg 1.353397 -0.000000 -0.000000
LeftFoot -7.070713 -1.776615 -14.864941
LeftToeBase 0.653837 -0.000000 -0.000000
Spine -48.984743 3.679922 -4.330640
RightShoulder -12.078940 23.446532 -42.710354
RightArm 7.946218 -16.917065 42.316340
RightForeArm 6.146974 -0.000000 -4.925890
RightHand 7.975966 -0.000000 7.466440
RightHandThumb1 -24.326973 -0.000000 -32.862282
LeftShoulder -9.647609 -0.327374 38.713031
LeftArm 31.324716 -8.454252 -37.798090
LeftForeArm 20.678522 -0.000000 -1.919834
LeftHand -26.264250 -0.000000 -3.685688
LeftHandThumb1 -26.253704 0.000000 33.147579
Head 2.041209 -2.080707 6.416061
988
root 2.397501 32.708984 -5.989615 45.910576 -6.652003 0.091275
RightUpLeg -39.914962 -13.513241 6.863517
RightLeg -3.068083 -0.000000 0.000000
RightFoot -6.666137 2.672071 19.703922
RightToeBase 20.517455 -0.000000 -0.000000
LeftUpLeg -38.873950 12.580635 -4.181787
LeftLeg 1.330259 -0.000000 -0.000000
LeftFoot -7.069978 -1.731970 -14.880562
LeftToeBase 0.715021 -0.000000 -0.000000
Spine -48.992083 3.607593 -4.225226
RightShoulder -12.048872 23.410798 -42.656990
RightArm 7.967715 -16.823419 42.383913
RightForeArm 6.120669 -0.000000 -4.976358
RightHand 7.787003 -0.000000 7.676332
RightHandThumb1 -24.326973 -0.000000 -32.862282
LeftShoulder -9.540226 -0.356216 38.704334
LeftArm 31.604522 -7.922526 -37.521559
LeftForeArm 20.220774 -0.000000 -1.813173
LeftHand -26.282373 -0.000000 -3.700600
LeftHandThumb1 -26.253704 0.000000 33.147579
Head 2.131092 -2.057850 6.493411
989
root 2.390631 32.709440 -6.005542 45.885296 -6.725540 0.096127
RightUpLeg -39.920847 -13.458357 6.820688
RightLeg -3.066837 -0.000000 0.000000
RightFoot -6.653139 2.679611 19.730897
RightToeBase 20.543417 -0.000000 -0.000000
LeftUpLeg -38.861918 12.614505 -4.218634
LeftLeg 1.310732 -0.000000 -0.000000
LeftFoot -7.057458 -1.662381 -14.843737
LeftToeBase 0.730210 -0.000000 -0.000000
Spine -49.007129 3.564541 -4.169304
RightShoulder -12.034283 23.392822 -42.653944
RightArm 7.975942 -16.661692 42.483486
RightForeArm 6.089580 0.000000 -5.052095
RightHand 7.695707 -0.000000 7.616477
RightHandThumb1 -24.326973 -0.000000 -32.862282
LeftShoulder -9.428319 -0.417616 38.709270
LeftArm 31.997826 -8.055550 -37.669943
LeftForeArm 20.517927 0.000000 -1.884462
LeftHand -25.963775 -0.000000 -3.765855
LeftHandThumb1 -26.253704 0.000000 33.147579
Head 2.191481 -2.033261 6.517366
990
root 2.382038 32.709745 -6.018683 45.839656 -6.772139 0.095808
RightUpLeg -39.905562 -13.459932 6.833182
RightLeg -3.065066 -0.000000 0.000000
RightFoot -6.637688 2.735276 19.735641
RightToeBase 20.565149 -0.000000 -0.000000
LeftUpLeg -38.828357 12.654207 -4.237519
LeftLeg 1.290087 -0.000000 -0.000000
LeftFoot -7.041937 -1.613943 -14.810095
LeftToeBase 0.757991 -0.000000 -0.000000
Spine -49.010526 3.509750 -4.096405
RightShoulder -12.026407 23.412358 -42.619870
RightArm 7.992029 -16.703519 42.515544
RightForeArm 6.189931 0.000000 -5.058621
RightHand 7.744351 -0.000000 7.758122
RightHandThumb1 -24.326973 -0.000000 -32.862282
LeftShoulder -9.297451 -0.507442 38.739679
LeftArm 32.296971 -7.973094 -37.711517
LeftForeArm 20.567062 0.000000 -1.875436
LeftHand -25.740097 -0.000000 -3.920011
LeftHandThumb1 -26.253704 0.000000 33.147579
Head 2.255898 -2.042430 6.543152
991
root 2.372841 32.710247 -6.031472 45.794052 -6.819573 0.078901
RightUpLeg -39.874009 -13.419479 6.827481
RightLeg -3.077908 -0.000000 0.000000
RightFoot -6.613757 2.744238 19.748751
RightToeBase 20.630866 -0.000000 -0.000000
LeftUpLeg -38.793038 12.689680 -4.226333
LeftLeg 1.284463 -0.000000 -0.000000
LeftFoot -7.058265 -1.559924 -14.824968
LeftToeBase 0.818540 -0.000000 -0.000000
Spine -49.011109 3.471805 -4.025519
RightShoulder -12.014134 23.423823 -42.604104
RightArm 8.024567 -16.735190 42.582540
RightForeArm 6.338003 -0.000000 -5.074844
RightHand 7.546959 -0.000000 7.857506
RightHandThumb1 -24.326973 -0.000000 -32.862282
LeftShoulder -9.163938 -0.698526 38.764892
LeftArm 32.493014 -7.590331 -37.562371
LeftForeArm 20.364788 -0.000000 -1.764634
LeftHand -25.915629 0.000000 -4.174599
LeftHandThumb1 -26.253704 0.000000 33.147579
Head 2.318518 -2.023991 6.564393
